<svg class="svg-icon" style="width: 1em; height: 1em;vertical-align: middle;fill: currentColor;overflow: hidden;" viewBox="0 0 1024 1024" version="1.1" xmlns="http://www.w3.org/2000/svg"><path d="M826.547952 827.419809c-87.759763 87.757716-192.626135 131.632993-314.589908 131.632993-121.972982 0-226.829122-43.875277-314.589908-131.632993S65.73412 634.799814 65.73412 512.831948s43.875277-226.830145 131.635039-314.588885C285.128923 110.48637 389.986085 66.607 511.959068 66.607c121.963773 0 226.829122 43.87937 314.589908 131.636063 87.759763 87.757716 131.635039 192.619996 131.635039 314.588885S914.307715 739.662093 826.547952 827.419809zM802.007023 222.786039C721.68158 142.465712 625.00268 102.305037 511.959068 102.305037s-209.723535 40.160675-290.047955 120.481002c-80.31521 80.320327-120.477932 177.002296-120.477932 290.045909s40.162722 209.725582 120.477932 290.045909c80.325443 80.320327 177.004343 120.476909 290.047955 120.476909s209.723535-40.156582 290.047955-120.476909c80.31521-80.320327 120.477932-177.002296 120.477932-290.045909S882.322234 303.106366 802.007023 222.786039zM708.297758 316.493258l-475.230562 214.18822 261.042341 0 0 261.041318L708.297758 316.493258z"  /></svg>