<svg class="svg-icon" style="width: 1em; height: 1em;vertical-align: middle;fill: currentColor;overflow: hidden;" viewBox="0 0 1024 1024" version="1.1" xmlns="http://www.w3.org/2000/svg"><path d="M512.34816 964.60288c-251.25376 0-455.68-204.42624-455.68-455.68 0-251.264 204.42624-455.68 455.68-455.68s455.68 204.416 455.68 455.68C968.02816 760.18176 763.60704 964.60288 512.34816 964.60288L512.34816 964.60288zM512.34816 73.4976c-240.1024 0-435.42528 195.33312-435.42528 435.42528 0 240.1024 195.32288 435.42528 435.42528 435.42528s435.42528-195.32288 435.42528-435.42528C947.77344 268.83072 752.45056 73.4976 512.34816 73.4976L512.34816 73.4976z"  /><path d="M648.25856 734.03392c-87.51616 0-178.13504-40.44288-248.64256-110.95552C325.58592 549.03296 285.184 456.01792 287.31904 366.44864l0.0768-3.38432 2.10432-2.65728c6.2464-7.92576 12.39552-14.90944 18.81088-21.33504C331.8784 315.52 359.56736 297.48224 390.656 285.44c2.77504-1.0752 5.99552-1.62816 9.55392-1.62816 10.77248 0 28.43648 5.7344 32.22016 16.09216 10.97728 30.46912 24.83712 70.28224 34.88256 108.19072 1.90464 7.26528-0.19456 28.52352-10.55744 35.0464l-35.84 22.74816c-2.432 1.50528-3.3792 4.21376-3.77856 6.23104-1.19808 6.0928 1.05472 13.9776 5.84192 20.55168 14.19776 19.42016 30.592 38.64576 48.768 57.13408 18.432 18.11968 37.61152 34.45248 56.8832 48.45568 9.74336 7.16288 23.17312 7.8336 26.67008 2.21696l22.8352-35.98848c5.888-9.1392 22.9376-11.12064 29.01504-11.12064 2.1504 0 4.00384 0.1792 5.632 0.53248 46.41792 10.36288 73.99424 19.26656 109.27616 35.26656 10.9568 4.9408 18.79552 28.61568 13.73184 41.50784-12.01664 31.01696-30.0288 58.72128-53.51936 82.29376-6.67648 6.58944-13.84448 12.91264-21.44256 18.83648l-2.6368 2.0736L648.25856 734.03392 648.25856 734.03392zM307.51232 370.29888c-0.93184 83.03104 37.2224 169.2416 105.00096 237.03552l1.50528 1.50528c66.64704 66.65728 152.06912 104.94464 234.24 104.94464l2.74432-0.04096c5.98528-4.82816 11.67872-9.89184 16.95744-15.1296 21.4528-21.51936 37.93408-46.8736 48.93696-75.29472 1.32096-3.34336-1.83808-13.92128-4.38784-16.47616-32.65024-14.59712-59.24352-23.15776-104.13056-33.16736-6.31808-0.24064-12.56448 1.65888-14.08512 2.7904l-21.82144 34.7648c-9.66656 15.72352-36.40832 17.58208-55.79264 3.38432-20.02944-14.56128-39.9872-31.5648-59.24864-50.49344-18.99008-19.32288-36.03968-39.296-50.7904-59.50976-8.2688-11.3152-11.69408-24.58624-9.37472-36.37248 1.6384-8.46848 6.23104-15.39072 12.89216-19.50208l35.7632-22.70208c0.6912-1.44896 2.28864-10.14784 1.78176-12.89728-9.81504-37.02784-23.4752-76.288-34.31936-106.3424-1.00352 0.58368-7.64928-2.7392-13.16864-2.7392-1.54624 0-2.19648 0.25088-2.21184 0.26112-28.46208 11.01824-53.81632 27.52512-75.35616 49.0496C317.5168 358.51264 312.53504 364.06784 307.51232 370.29888L307.51232 370.29888z"  /></svg>