<svg class="svg-icon" style="width: 1em;height: 1em;vertical-align: middle;fill: currentColor;overflow: hidden;" viewBox="0 0 1024 1024" version="1.1" xmlns="http://www.w3.org/2000/svg"><path d="M296 817.984h432c5.312 0 8 2.688 8 8v56c0 5.376-2.688 8-8 8h-432c-5.312 0-8-2.624-8-8v-56c0-5.312 2.688-8 8-8zM892.032 158.08H131.968c-37.504 0-67.904 30.464-67.968 67.968v465.024c0 37.504 30.464 67.968 68.032 67.968h759.936c37.568 0 67.968-30.464 68.032-67.968V225.92c0-37.504-30.464-67.968-68.032-67.968z m-4.032 528.96H136v-456.96h752v456.96zM512 617.984c39.04 0 76.8-13.76 106.688-38.848a32.32 32.32 0 0 0 4.032-3.968 4.352 4.352 0 0 0-0.32-5.888l-38.912-38.912a4.352 4.352 0 0 0-5.888-0.32 101.504 101.504 0 1 1 31.168-110.08H512.64a32.448 32.448 0 0 0-32.64 31.104 32 32 0 0 0 32 32.896h134.016c17.664 0 32-14.4 32-32.128A165.76 165.76 0 1 0 512 617.984z"  /></svg>